<svg width="670" height="419" viewBox="0 0 670 419" fill="none" xmlns="http://www.w3.org/2000/svg">
<path opacity="0.4" d="M534.213 0C526.173 65.0982 448.453 183.828 351.768 181.114C255.082 178.4 228.399 255.066 197.177 294.382C165.955 333.699 126.916 341.288 52.7246 331.723C31.767 329.009 14.3112 330.173 0.0178833 333.23V418.799H617.954V0H534.213Z" fill="#8C6BC4"/>
<path d="M0 361.256C0 361.256 30.5788 322.324 104.77 331.94C178.961 341.556 217.973 333.908 249.24 294.583C280.507 255.258 307.182 178.592 403.831 181.306C500.481 184.02 578.273 65.2988 586.277 0.200653H670V419H0V361.256Z" fill="#6544AA"/>
</svg>
