<svg width="447" height="363" viewBox="0 0 447 363" fill="none" xmlns="http://www.w3.org/2000/svg">
<path opacity="0.32" d="M235.647 290.914L272.167 313.502L328.444 276.513L290.125 252.889" fill="url(#paint0_linear_20_3)"/>
<path d="M128.881 11.931C129.326 11.931 129.752 11.7407 130.067 11.402C130.381 11.0633 130.558 10.6039 130.558 10.1249C130.558 9.64591 130.381 9.18652 130.067 8.84781C129.752 8.5091 129.326 8.31882 128.881 8.31882C128.437 8.31882 128.01 8.5091 127.696 8.84781C127.382 9.18652 127.205 9.64591 127.205 10.1249C127.205 10.6039 127.382 11.0633 127.696 11.402C128.01 11.7407 128.437 11.931 128.881 11.931V11.931Z" fill="#E6E6E6"/>
<path d="M155.221 208.038L156.059 208.567L239.458 260.969L241.76 257.549L248.655 255.743L248.688 252.805L255.729 251.312L257.237 248.23L262.244 247.712L264.557 243.678L268.39 242.763L270.983 239.681L276.771 238.753L279.364 234.503L195.596 182.921L191.651 182.09L190.634 186.003L188.12 183.896L186.254 187.845H182.711L181.851 191.47L177.247 191.963L176.889 194.552L172.285 195.539L171.167 198.742L167.815 198.14L166.563 201.74L161.479 200.861L160.92 203.643L157.199 204.943" fill="white"/>
<path d="M309.559 266.64V270.132L308.575 268.386L309.559 266.64Z" fill="#756373"/>
<path d="M173.626 246.893V250.252L176.14 248.446L173.626 246.893Z" fill="#756373"/>
<path d="M175.66 253.889L253.807 302.124C255.153 302.964 256.681 303.407 258.238 303.407C259.794 303.407 261.322 302.964 262.668 302.124L307.57 273.768C308.182 273.386 308.691 272.837 309.044 272.177C309.398 271.517 309.584 270.768 309.584 270.005C309.584 269.243 309.398 268.494 309.044 267.833C308.691 267.173 308.182 266.624 307.57 266.242L229.088 217.405C227.912 216.667 226.576 216.278 225.215 216.278C223.855 216.278 222.519 216.667 221.343 217.405L175.671 246.303C175.045 246.679 174.523 247.229 174.159 247.895C173.795 248.561 173.603 249.319 173.602 250.092C173.601 250.865 173.791 251.624 174.153 252.291C174.514 252.959 175.035 253.51 175.66 253.889V253.889Z" fill="#513F2C"/>
<path d="M175.66 250.541L253.807 298.776C255.153 299.617 256.681 300.059 258.237 300.059C259.794 300.059 261.322 299.617 262.668 298.776L307.57 270.42C308.182 270.039 308.691 269.49 309.044 268.83C309.398 268.169 309.584 267.42 309.584 266.658C309.584 265.895 309.398 265.146 309.044 264.486C308.691 263.825 308.182 263.277 307.57 262.895L229.087 214.01C227.912 213.272 226.576 212.883 225.215 212.883C223.855 212.883 222.519 213.272 221.343 214.01L175.671 242.908C175.034 243.28 174.502 243.831 174.13 244.502C173.759 245.173 173.563 245.94 173.561 246.721C173.56 247.502 173.755 248.269 174.124 248.941C174.493 249.614 175.024 250.166 175.66 250.541V250.541Z" fill="#301AEC"/>
<path d="M184.678 246.411L198.401 255.057C198.729 255.273 199.106 255.387 199.491 255.387C199.875 255.387 200.252 255.273 200.58 255.057L208.224 249.831C208.397 249.715 208.54 249.554 208.639 249.362C208.738 249.171 208.791 248.955 208.791 248.735C208.791 248.516 208.738 248.3 208.639 248.108C208.54 247.916 208.397 247.755 208.224 247.639L193.842 238.729C193.541 238.543 193.197 238.453 192.851 238.47C192.504 238.487 192.17 238.611 191.886 238.826L184.633 244.304C184.479 244.427 184.354 244.588 184.27 244.773C184.185 244.959 184.144 245.164 184.148 245.37C184.152 245.577 184.203 245.779 184.295 245.961C184.387 246.142 184.519 246.296 184.678 246.411V246.411Z" fill="white"/>
<path d="M251.002 284.508C255.001 284.508 258.243 282.05 258.243 279.018C258.243 275.985 255.001 273.527 251.002 273.527C247.002 273.527 243.76 275.985 243.76 279.018C243.76 282.05 247.002 284.508 251.002 284.508Z" fill="#FF4700"/>
<path d="M258.802 289.264C262.801 289.264 266.043 286.806 266.043 283.774C266.043 280.741 262.801 278.283 258.802 278.283C254.802 278.283 251.56 280.741 251.56 283.774C251.56 286.806 254.802 289.264 258.802 289.264Z" fill="#FFDF24"/>
<path d="M200.379 227.339L288.382 282.485L301.982 273.9L212.85 219.428L200.379 227.339Z" fill="#513F2C"/>
<path opacity="0.32" d="M384.576 244.894C391.674 239.557 399.19 234.895 407.038 230.963L366.987 212.902L353.778 223.293C363.087 229.723 372.429 236.08 381.626 242.667C382.621 243.425 383.593 244.112 384.576 244.894Z" fill="url(#paint1_linear_20_3)"/>
<path d="M377.268 186.557C377.192 186.217 377.051 185.897 376.855 185.618C376.494 185.144 376.063 184.738 375.581 184.414C369.088 179.682 360.092 178.394 353.231 183.005C351.666 184.065 349.331 186.461 350.258 188.724C350.794 190.037 352.426 190.807 353.611 191.337C357.386 192.949 361.33 194.057 365.355 194.636C366.808 194.901 368.283 195.166 369.747 195.311C370.76 195.416 371.781 195.245 372.716 194.813C373.652 194.382 374.471 193.704 375.1 192.842C376.095 191.446 377.715 188.616 377.268 186.557Z" fill="#754C24"/>
<path d="M350.079 187.689C350.079 187.689 356.002 193.468 366.238 192.626C376.475 191.783 377.268 186.605 377.268 186.605C377.268 186.605 374.62 223.161 373.223 223.787C371.826 224.413 366.596 227.134 364.07 227.339C361.545 227.544 353.566 224.1 353.365 223.149C353.163 222.198 350.079 187.689 350.079 187.689Z" fill="#FF8F6F"/>
<path d="M351.945 134.409C351.633 133.723 350.66 134.325 350.984 135.011C357.991 150.23 359.354 167.364 360.617 184.004C360.673 184.763 361.791 184.775 361.735 184.004C360.45 167.135 359.042 149.833 351.945 134.409Z" fill="#007F68"/>
<path d="M351.051 134.541C351.051 134.541 353.007 142.44 350.984 146.389C348.962 150.339 347.297 151.121 349.71 156.022C352.124 160.922 358.583 161.585 359.008 165.341C359.433 169.098 355.913 141.26 351.051 134.541Z" fill="#007F68"/>
<path d="M373.457 148.81C368.061 160.969 365.019 174.185 364.517 187.653C364.517 188.592 365.847 188.58 365.881 187.653C366.354 174.441 369.316 161.472 374.586 149.532C375 148.701 373.826 147.967 373.457 148.81Z" fill="#007F68"/>
<path d="M374.362 152.663C374.362 151.868 374.195 150.254 374.273 148.918L373.491 149.448C370.831 156.419 366.853 172.795 365.668 177.803C367.289 174.047 373.915 173.529 375.86 168.171C376.718 165.897 376.758 163.359 375.972 161.055C375.013 158.371 374.469 155.536 374.362 152.663V152.663Z" fill="#007F68"/>
<path opacity="0.32" d="M78.0686 224.594L115.482 246.893L192.713 197.875L157.534 176.19" fill="url(#paint2_linear_20_3)"/>
<path d="M75.3419 168.918V220.464C75.3439 221.238 75.5359 221.998 75.8984 222.667C76.2609 223.336 76.781 223.89 77.406 224.272C78.0311 224.655 78.7388 224.853 79.4576 224.846C80.1765 224.839 80.8808 224.627 81.4993 224.232L152.494 178.695C153.1 178.305 153.601 177.753 153.95 177.093C154.299 176.432 154.482 175.686 154.483 174.926V122.428C154.483 121.655 154.293 120.896 153.933 120.227C153.574 119.559 153.057 119.004 152.434 118.619C151.812 118.235 151.107 118.033 150.389 118.036C149.672 118.039 148.968 118.246 148.348 118.636L78.7726 162.464C77.7278 163.123 76.8615 164.066 76.2597 165.198C75.6578 166.331 75.3414 167.613 75.3419 168.918V168.918Z" fill="#5DA024"/>
<path d="M78.3926 170.194V221.74C78.3947 222.515 78.5867 223.275 78.9492 223.944C79.3117 224.612 79.8318 225.166 80.4568 225.549C81.0818 225.931 81.7896 226.129 82.5084 226.122C83.2272 226.115 83.9316 225.903 84.5501 225.509L155.545 179.971C156.15 179.582 156.652 179.03 157.001 178.369C157.349 177.709 157.533 176.962 157.534 176.202V123.705C157.534 122.932 157.344 122.173 156.984 121.504C156.624 120.835 156.107 120.28 155.485 119.896C154.863 119.511 154.157 119.31 153.44 119.313C152.723 119.316 152.019 119.522 151.399 119.912L81.8234 163.74C80.7786 164.4 79.9123 165.343 79.3104 166.475C78.7086 167.607 78.3922 168.889 78.3926 170.194V170.194Z" fill="#79C83B"/>
<path d="M151.938 173.443C153.445 169.322 152.563 165.089 149.967 163.986C147.372 162.884 144.046 165.331 142.539 169.452C141.032 173.572 141.914 177.806 144.509 178.908C147.105 180.01 150.43 177.563 151.938 173.443Z" fill="#FBF472"/>
<path d="M144.739 177.755C146.246 173.635 145.364 169.401 142.768 168.299C140.173 167.197 136.847 169.643 135.34 173.764C133.833 177.884 134.715 182.118 137.31 183.22C139.906 184.322 143.231 181.875 144.739 177.755Z" fill="#E2347C"/>
<path d="M87.2432 166.991C88.1372 166.437 88.7407 166.726 88.9307 167.774L88.249 168.448C88.0702 167.87 87.7349 167.725 87.2432 168.026C86.8725 168.272 86.58 168.633 86.4051 169.062C86.173 169.605 86.0583 170.198 86.0699 170.796C86.0153 171.262 86.1316 171.733 86.3939 172.108C86.5102 172.212 86.6564 172.269 86.8074 172.269C86.9584 172.269 87.1046 172.212 87.2209 172.108C87.4889 171.921 87.7178 171.675 87.8929 171.387C88.068 171.099 88.1854 170.774 88.2378 170.435L88.9195 170.266C88.8477 170.859 88.6526 171.427 88.3488 171.927C88.0451 172.427 87.6404 172.847 87.165 173.156C86.9686 173.321 86.7268 173.41 86.4777 173.41C86.2287 173.41 85.9868 173.321 85.7905 173.156C85.577 172.898 85.4176 172.593 85.3232 172.263C85.2287 171.932 85.2013 171.584 85.2429 171.241C85.2335 170.333 85.4291 169.437 85.8128 168.628C86.1328 167.945 86.6296 167.376 87.2432 166.991Z" fill="white"/>
<path d="M91.568 167.725L92.6855 169.724L91.8362 170.254L90.7187 168.328L90.3164 168.568V171.169L89.5564 171.639V165.618L91.0539 164.691C91.8473 164.198 92.2943 164.607 92.2943 165.642C92.3127 166.412 92.0521 167.159 91.568 167.725V167.725ZM91.0986 167.075C91.258 166.98 91.3889 166.837 91.476 166.665C91.563 166.492 91.6027 166.296 91.5903 166.1C91.5903 165.642 91.4301 165.514 91.1098 165.715L90.3722 166.172V167.533L91.1098 167.075" fill="white"/>
<path d="M95.7921 161.801V162.837L94.0153 163.921L94.0041 165.185L95.4233 164.318V165.353L94.0041 166.22L93.9929 167.882L95.8256 166.762V167.798L93.2219 169.387L93.2554 163.355L95.7921 161.801Z" fill="white"/>
<path d="M97.826 160.549C98.7982 159.959 99.7369 160.284 99.7257 162.391C99.7618 163.208 99.6043 164.022 99.268 164.755C98.9318 165.488 98.4278 166.116 97.8036 166.582L96.5296 167.364V161.344L97.826 160.549ZM98.4853 164.739C98.8036 164.179 98.9628 163.53 98.9435 162.873C98.9435 162.102 98.7758 161.669 98.4965 161.561C98.3406 161.518 98.1781 161.512 98.02 161.543C97.8618 161.574 97.7118 161.642 97.5801 161.741L97.3007 161.91V165.871L97.5801 165.703C97.9573 165.468 98.2757 165.137 98.5076 164.739" fill="white"/>
<path d="M101.19 158.478L101.156 164.511L100.396 164.98L100.419 158.948L101.19 158.478Z" fill="white"/>
<path d="M104.866 156.215V157.25L103.726 157.948L103.704 162.945L102.944 163.415L102.966 158.418L101.827 159.116L101.838 158.081L104.866 156.215Z" fill="white"/>
<path d="M108.587 153.806C109.481 153.253 110.085 153.542 110.275 154.589L109.593 155.263C109.414 154.685 109.079 154.541 108.587 154.842C108.218 155.088 107.925 155.449 107.749 155.877C107.517 156.421 107.403 157.013 107.414 157.611C107.36 158.078 107.476 158.548 107.738 158.924C107.855 159.025 108.001 159.081 108.152 159.081C108.302 159.081 108.448 159.025 108.565 158.924C108.833 158.736 109.062 158.49 109.237 158.202C109.412 157.914 109.53 157.59 109.582 157.25L110.264 157.082C110.194 157.666 110.004 158.226 109.708 158.722C109.413 159.217 109.018 159.636 108.554 159.947C108.358 160.112 108.116 160.202 107.867 160.202C107.618 160.202 107.376 160.112 107.179 159.947C106.966 159.689 106.807 159.385 106.712 159.054C106.618 158.724 106.59 158.375 106.632 158.033C106.621 157.125 106.817 156.228 107.202 155.42C107.513 154.752 107.994 154.193 108.587 153.806V153.806Z" fill="white"/>
<path d="M112.633 151.398L113.996 156.576L113.18 157.082L112.89 155.877L111.582 156.684L111.281 158.298L110.465 158.803L111.884 151.916L112.633 151.398ZM111.806 155.468L112.666 154.938L112.242 153.12L111.795 155.528" fill="white"/>
<path d="M116.488 152.398L117.606 154.396L116.756 154.926L115.639 153L115.248 153.24V155.841L114.488 156.311V150.291L115.974 149.375C116.768 148.882 117.215 149.291 117.215 150.327C117.23 151.092 116.97 151.834 116.488 152.398V152.398ZM116.019 151.747C116.175 151.652 116.303 151.511 116.389 151.341C116.474 151.17 116.512 150.977 116.499 150.784C116.499 150.327 116.343 150.194 116.03 150.399L115.292 150.856V152.217L116.03 151.759" fill="white"/>
<path d="M119.461 147.244C120.422 146.654 121.361 146.979 121.349 149.099C121.384 149.913 121.225 150.724 120.889 151.455C120.553 152.186 120.05 152.813 119.427 153.277L118.153 154.059V148.039L119.461 147.244ZM120.12 151.434C120.436 150.873 120.595 150.225 120.578 149.568C120.578 148.797 120.411 148.364 120.131 148.256C119.975 148.213 119.813 148.207 119.655 148.238C119.497 148.269 119.347 148.337 119.215 148.436L118.936 148.617V152.578L119.215 152.398C119.592 152.162 119.91 151.831 120.142 151.434" fill="white"/>
<path d="M86.8409 182.921V192.553C86.8395 192.96 86.9376 193.36 87.1253 193.712C87.3131 194.065 87.5838 194.358 87.9102 194.562C88.2366 194.766 88.6072 194.873 88.9845 194.874C89.3618 194.874 89.7325 194.767 90.0593 194.564L102.542 186.882C102.877 186.685 103.158 186.394 103.355 186.041C103.551 185.687 103.656 185.283 103.659 184.871V175.034C103.659 174.623 103.556 174.219 103.362 173.864C103.169 173.51 102.89 173.217 102.557 173.017C102.223 172.817 101.846 172.717 101.464 172.726C101.082 172.736 100.71 172.855 100.385 173.071L87.9025 180.958C87.5838 181.159 87.3186 181.445 87.1326 181.789C86.9466 182.133 86.8461 182.523 86.8409 182.921V182.921Z" fill="#D1D1F5"/>
<path d="M108.543 174.793L108.833 174.613L108.465 180.633L107.805 181.054L108.085 176.551L107.336 177.683L107.414 176.515L108.543 174.793Z" fill="white"/>
<path d="M110.632 173.397H110.722C111.404 172.963 111.772 173.397 111.705 174.444C111.658 175.01 111.522 175.564 111.303 176.082L110.297 178.574L111.582 177.743L111.515 178.731L109.18 180.176V179.742L110.655 176.13C110.834 175.728 110.951 175.297 111.001 174.854C111.001 174.36 110.89 174.167 110.599 174.36C110.455 174.495 110.338 174.659 110.254 174.843C110.169 175.027 110.119 175.227 110.107 175.432L109.515 175.636C109.562 175.158 109.699 174.695 109.917 174.276C110.09 173.927 110.335 173.627 110.632 173.397Z" fill="white"/>
<path d="M112.644 172.144L114.734 170.796V171.181L113.762 173.649L113.907 173.529C114.466 173.18 114.767 173.674 114.711 174.733C114.681 175.326 114.532 175.905 114.276 176.431C114.089 176.841 113.813 177.197 113.471 177.466L113.359 177.539C113.024 177.767 112.745 177.779 112.543 177.599C112.425 177.466 112.336 177.306 112.283 177.131C112.231 176.956 112.217 176.77 112.242 176.587L112.879 176.046C112.879 176.575 113.102 176.744 113.415 176.551C113.6 176.384 113.749 176.176 113.853 175.941C113.957 175.706 114.013 175.451 114.019 175.191C114.019 174.504 113.851 174.288 113.516 174.504C113.404 174.591 113.306 174.697 113.225 174.817L113.002 174.384L113.784 172.385L112.666 173.132L112.644 172.144Z" fill="white"/>
<path d="M117.46 172.795L117.863 172.53L117.807 173.529L117.393 173.782L117.326 174.902L116.667 175.323L116.734 174.203L115.17 175.215V174.661L116.969 169.315L117.662 168.869L117.46 172.795ZM116.801 173.216L116.935 170.928L116.019 173.722L116.79 173.216" fill="white"/>
<path d="M121.964 169.893L122.377 169.628L122.31 170.627L121.908 170.88L121.841 172.012L121.193 172.433L121.26 171.314L119.695 172.325V171.783L121.506 166.437L122.199 165.992L121.964 169.893ZM121.305 170.314L121.45 168.014L120.534 170.82L121.305 170.314" fill="white"/>
<path d="M123.54 165.125L125.428 163.921L125.361 164.92L124.02 165.787L123.853 167.099C123.975 166.909 124.126 166.742 124.3 166.606H124.389C125.126 166.124 125.506 166.606 125.395 167.87C125.365 168.464 125.224 169.046 124.981 169.58C124.801 170.004 124.524 170.373 124.177 170.651L124.042 170.663C123.937 170.761 123.806 170.821 123.668 170.834C123.529 170.847 123.391 170.813 123.271 170.736C123.161 170.607 123.078 170.455 123.028 170.289C122.977 170.122 122.961 169.946 122.981 169.772L123.618 169.182C123.618 169.7 123.819 169.857 124.11 169.664C124.294 169.494 124.439 169.28 124.536 169.041C124.633 168.801 124.678 168.541 124.668 168.279C124.668 167.593 124.523 167.376 124.165 167.605H124.11C123.833 167.849 123.618 168.164 123.484 168.52L123.081 168.653L123.54 165.125Z" fill="white"/>
<path d="M128.177 164.751C128.296 164.921 128.38 165.117 128.425 165.324C128.469 165.531 128.472 165.747 128.434 165.955C128.396 166.524 128.248 167.078 127.998 167.581C127.813 167.998 127.537 168.362 127.194 168.641L127.093 168.713C126.976 168.82 126.828 168.878 126.674 168.878C126.521 168.878 126.372 168.82 126.255 168.713C126.13 168.546 126.042 168.352 125.995 168.143C125.949 167.935 125.946 167.718 125.987 167.509C126.014 167.097 126.097 166.691 126.233 166.305L127.484 162.464L128.211 161.994L127.283 164.739H127.373C127.708 164.523 127.976 164.523 128.177 164.751ZM127.775 166.365C127.775 165.763 127.596 165.546 127.272 165.763C127.098 165.922 126.957 166.119 126.858 166.341C126.76 166.563 126.707 166.805 126.702 167.051C126.702 167.629 126.892 167.858 127.205 167.653C127.381 167.492 127.523 167.293 127.623 167.069C127.723 166.845 127.779 166.601 127.786 166.353" fill="white"/>
<path d="M129.105 161.537L131.317 160.104L131.295 160.561L129.574 167.027L128.926 167.436L130.479 161.609L129.038 162.536L129.105 161.537Z" fill="white"/>
<path d="M134.826 160.513C135.139 160.609 135.273 160.983 135.229 161.645C135.198 162.2 135.049 162.74 134.793 163.222C134.609 163.607 134.345 163.941 134.022 164.198L133.921 164.27C133.805 164.368 133.661 164.422 133.513 164.422C133.365 164.422 133.222 164.368 133.105 164.27C132.986 164.114 132.901 163.932 132.856 163.736C132.812 163.54 132.809 163.335 132.848 163.138C132.878 162.505 133.076 161.895 133.418 161.38C133.206 161.236 133.117 160.91 133.15 160.393C133.181 159.916 133.307 159.452 133.519 159.032C133.681 158.67 133.923 158.356 134.223 158.117H134.301C134.614 157.924 134.849 157.912 135.028 158.117C135.128 158.253 135.2 158.41 135.238 158.578C135.277 158.747 135.281 158.922 135.251 159.092C135.219 159.596 135.073 160.084 134.826 160.513V160.513ZM134.569 162.078C134.587 161.985 134.586 161.888 134.567 161.795C134.547 161.701 134.51 161.613 134.458 161.537C134.368 161.452 134.245 161.452 134.089 161.537C133.941 161.652 133.822 161.805 133.742 161.982C133.632 162.206 133.567 162.452 133.552 162.704C133.534 162.798 133.535 162.895 133.554 162.988C133.573 163.082 133.611 163.17 133.664 163.246C133.754 163.331 133.876 163.343 134.022 163.246C134.169 163.131 134.288 162.978 134.368 162.801C134.479 162.578 134.544 162.331 134.558 162.078H134.569ZM134.625 159.502C134.625 159.044 134.491 158.864 134.223 159.032C134.087 159.155 133.978 159.308 133.901 159.48C133.824 159.653 133.781 159.84 133.776 160.031C133.776 160.489 133.91 160.694 134.167 160.525C134.306 160.399 134.418 160.242 134.497 160.066C134.576 159.89 134.62 159.697 134.625 159.502" fill="white"/>
<path d="M138.045 156.215C138.169 156.381 138.258 156.576 138.305 156.784C138.351 156.992 138.354 157.209 138.313 157.419C138.291 157.83 138.212 158.236 138.078 158.623L136.827 162.452L136.089 162.921L137.017 160.176H136.938C136.603 160.393 136.331 160.393 136.123 160.176C136.006 160.005 135.924 159.809 135.882 159.602C135.84 159.394 135.838 159.18 135.877 158.972C135.927 158.425 136.083 157.896 136.335 157.419C136.521 157.001 136.797 156.638 137.14 156.359L137.24 156.287C137.346 156.176 137.484 156.109 137.63 156.096C137.777 156.083 137.924 156.125 138.045 156.215V156.215ZM137.654 157.804C137.654 157.226 137.464 156.997 137.14 157.214C136.964 157.376 136.822 157.575 136.722 157.798C136.622 158.022 136.567 158.266 136.559 158.514C136.559 159.116 136.737 159.333 137.073 159.104C137.247 158.945 137.388 158.748 137.486 158.526C137.585 158.304 137.638 158.062 137.642 157.816" fill="white"/>
<path d="M138.928 155.203L141.151 153.77L141.118 154.216L139.408 160.682L138.76 161.091L140.313 155.263L138.872 156.203L138.928 155.203Z" fill="white"/>
<path d="M143.643 152.602C143.766 152.77 143.854 152.965 143.9 153.173C143.946 153.381 143.95 153.597 143.912 153.806C143.892 154.218 143.812 154.625 143.677 155.01L142.425 158.839L141.688 159.309L142.615 156.564H142.537C142.202 156.792 141.923 156.792 141.721 156.564C141.609 156.39 141.529 156.195 141.487 155.988C141.444 155.782 141.441 155.568 141.476 155.36C141.524 154.814 141.676 154.286 141.923 153.806C142.108 153.389 142.384 153.025 142.727 152.747L142.828 152.675C143.152 152.422 143.431 152.41 143.643 152.602ZM143.252 154.204C143.252 153.626 143.062 153.397 142.738 153.614C142.563 153.775 142.421 153.974 142.321 154.198C142.221 154.422 142.165 154.666 142.157 154.914C142.157 155.516 142.336 155.733 142.671 155.504C142.846 155.345 142.987 155.148 143.085 154.926C143.183 154.704 143.236 154.462 143.241 154.216" fill="white"/>
<path d="M96.6079 201.126L95.5798 204.534L96.6526 206.846L95.9038 207.412L95.1886 205.858L94.384 208.543L93.6241 209.109L94.8422 205.088L93.9259 203.125L94.6746 202.571L95.2333 203.775L95.8703 201.68L96.6079 201.126Z" fill="white"/>
<path d="M102.821 196.503L101.793 199.91L102.866 202.222L102.106 202.788L101.402 201.235L100.586 203.92L99.8374 204.486L101.044 200.464L100.139 198.501L100.888 197.948L101.447 199.152L102.084 197.057L102.821 196.503Z" fill="white"/>
<path d="M99.7145 198.815L98.6864 202.222L99.7592 204.534L98.9993 205.1L98.2953 203.547L97.4795 206.232L96.7308 206.797L97.9377 202.776L97.0325 200.813L97.7813 200.259L98.34 201.463L98.977 199.368L99.7145 198.815Z" fill="white"/>
<path d="M107.224 193.216L106.196 196.635L107.269 198.947L106.509 199.513L105.805 197.96L104.989 200.645L104.24 201.199L105.458 197.189L104.542 195.214L105.291 194.66L105.85 195.877L106.487 193.769L107.224 193.216Z" fill="white"/>
<path d="M110.331 190.904L109.303 194.323L110.375 196.635L109.616 197.201L108.912 195.636L108.096 198.333L107.347 198.887L108.565 194.877L107.649 192.903L108.398 192.349L108.956 193.553L109.593 191.458L110.331 190.904Z" fill="white"/>
<path d="M113.437 188.592L112.409 192.012L113.482 194.323L112.733 194.877L112.018 193.324L111.214 196.009L110.443 196.575L111.661 192.565L110.755 190.591L111.504 190.037L112.063 191.241L112.7 189.146L113.437 188.592Z" fill="white"/>
<path opacity="0.32" d="M269.038 218.429L301.982 239.837L352.348 207.857L317.169 186.172" fill="url(#paint3_linear_20_3)"/>
<path d="M195.92 78.0946C194.255 79.3307 192.909 81.0023 192.008 82.9526C191.107 84.9028 190.68 87.0678 190.768 89.2443C191.093 99.539 193.227 101.526 193.227 101.526L208.458 93.4946L230.551 76.0958C230.551 76.0958 211.934 71.1712 195.92 78.0946Z" fill="#666666"/>
<path d="M168.832 135.143C168.832 135.143 165.278 149.46 183.46 164.33C201.642 179.2 269.038 218.429 269.038 218.429L319.046 186.605V162.018L188.299 113.675" fill="#E6E6E6"/>
<path d="M319.046 162.018L245.515 103.898C245.515 103.898 234.049 93.2538 223.969 94.2653C213.889 95.2767 173.615 124.367 173.615 124.367L272.994 193.541L319.046 162.018Z" fill="#333333"/>
<path d="M232.328 149.953L244.733 160.501L275.374 140.67L263.73 130.724L232.328 149.953Z" fill="#70F9E9"/>
<path d="M216.471 141.091L272.134 186.605L309.559 163.535L253.851 118.021L216.471 141.091Z" fill="#301AEC"/>
<path d="M272.994 191.373L212.224 142.464C212.224 142.464 185.773 114.843 175.626 123.091C175.626 123.091 169.815 125.354 168.832 135.131C168.832 135.131 177.135 127.714 185.829 133.446C194.523 139.177 271.016 202.463 271.016 202.463L272.994 191.373Z" fill="#666666"/>
<path d="M272.994 191.373L319.046 162.018V171.482L271.016 202.475L272.994 191.373Z" fill="#515151"/>
<path d="M271.016 202.475L269.038 218.429C269.038 218.429 319.046 187.773 319.046 186.605V171.482L271.016 202.475Z" fill="#CCCCCC"/>
<path d="M211.61 126.486L236.91 111.592C236.91 111.592 236.552 85.1745 226.853 69.04C225.966 67.6268 224.636 66.6055 223.107 66.1632C221.577 65.7209 219.952 65.8873 218.527 66.6319L195.976 78.1187C195.976 78.1187 204.614 72.604 211.61 126.486Z" fill="#E6E6E6"/>
<path d="M213.208 94.2412L229.412 84.6688" stroke="#999999" stroke-width="1.015" stroke-miterlimit="10"/>
<path d="M214.348 98.2748L230.563 88.7024" stroke="#999999" stroke-width="1.015" stroke-miterlimit="10"/>
<path d="M214.996 102.176L231.211 92.6036" stroke="#999999" stroke-width="1.015" stroke-miterlimit="10"/>
<path d="M217.298 118.467L233.502 108.895" stroke="#999999" stroke-width="1.015" stroke-miterlimit="10"/>
<path d="M279.789 154.144C278.861 159.706 270.591 162.777 261.327 161.007C252.063 159.237 245.302 153.277 246.23 147.762C247.157 142.247 255.427 139.129 264.691 140.899C273.955 142.669 280.727 148.581 279.789 154.144Z" fill="#01C56F"/>
<path d="M259.506 155.6H266.915L263.954 143.921" stroke="#F2F2F2" stroke-width="2.03" stroke-miterlimit="10"/>
<defs>
<linearGradient id="paint0_linear_20_3" x1="291.031" y1="298.776" x2="283.868" y2="288.426" gradientUnits="userSpaceOnUse">
<stop stop-color="white" stop-opacity="0"/>
<stop offset="0.98" stop-color="#0800BF"/>
</linearGradient>
<linearGradient id="paint1_linear_20_3" x1="-13447.2" y1="6472.48" x2="-14186.4" y2="5480.65" gradientUnits="userSpaceOnUse">
<stop stop-color="white" stop-opacity="0"/>
<stop offset="0.98" stop-color="#0800BF"/>
</linearGradient>
<linearGradient id="paint2_linear_20_3" x1="14680.3" y1="13335.4" x2="14062.1" y2="11493.7" gradientUnits="userSpaceOnUse">
<stop stop-color="white" stop-opacity="0"/>
<stop offset="0.98" stop-color="#0800BF"/>
</linearGradient>
<linearGradient id="paint3_linear_20_3" x1="23884" y1="10182.4" x2="23412.4" y2="8836.47" gradientUnits="userSpaceOnUse">
<stop stop-color="white" stop-opacity="0"/>
<stop offset="0.98" stop-color="#0800BF"/>
</linearGradient>
</defs>
</svg>
