<svg width="670" height="419" viewBox="0 0 670 419" fill="none" xmlns="http://www.w3.org/2000/svg">
<path opacity="0.4" d="M534.213 0C526.173 65.0982 448.453 183.828 351.768 181.114C255.082 178.4 228.399 255.066 197.177 294.382C165.955 333.699 126.916 341.288 52.7246 331.723C31.767 329.009 14.3112 330.173 0.0178833 333.23V418.799H617.954V0H534.213Z" fill="#8C6BC4"/>
<path d="M0 361.256C0 361.256 30.5788 322.324 104.77 331.94C178.961 341.556 217.973 333.908 249.24 294.583C280.507 255.258 307.182 178.592 403.831 181.306C500.481 184.02 578.273 65.2988 586.277 0.200653H670V419H0V361.256Z" fill="#6544AA"/>
<path opacity="0.32" d="M431.647 330.914L468.167 353.502L524.444 316.513L486.125 292.889" fill="url(#paint0_linear_5_444)"/>
<path d="M324.881 51.931C325.326 51.931 325.752 51.7407 326.067 51.402C326.381 51.0633 326.558 50.6039 326.558 50.1249C326.558 49.6459 326.381 49.1865 326.067 48.8478C325.752 48.5091 325.326 48.3188 324.881 48.3188C324.437 48.3188 324.01 48.5091 323.696 48.8478C323.382 49.1865 323.205 49.6459 323.205 50.1249C323.205 50.6039 323.382 51.0633 323.696 51.402C324.01 51.7407 324.437 51.931 324.881 51.931V51.931Z" fill="#E6E6E6"/>
<path d="M351.221 248.038L352.059 248.567L435.458 300.969L437.76 297.549L444.655 295.743L444.688 292.805L451.729 291.312L453.237 288.23L458.244 287.712L460.557 283.678L464.39 282.763L466.983 279.681L472.771 278.753L475.364 274.503L391.596 222.921L387.651 222.09L386.634 226.003L384.12 223.896L382.254 227.845H378.711L377.851 231.47L373.247 231.963L372.889 234.552L368.285 235.539L367.167 238.742L363.815 238.14L362.563 241.74L357.479 240.861L356.92 243.643L353.199 244.943" fill="white"/>
<path d="M505.559 306.64V310.132L504.575 308.386L505.559 306.64Z" fill="#756373"/>
<path d="M369.626 286.893V290.252L372.14 288.446L369.626 286.893Z" fill="#756373"/>
<path d="M371.66 293.889L449.807 342.124C451.153 342.964 452.681 343.407 454.238 343.407C455.794 343.407 457.322 342.964 458.668 342.124L503.57 313.768C504.182 313.386 504.691 312.837 505.044 312.177C505.398 311.517 505.584 310.768 505.584 310.005C505.584 309.243 505.398 308.494 505.044 307.833C504.691 307.173 504.182 306.624 503.57 306.242L425.088 257.405C423.912 256.667 422.576 256.278 421.215 256.278C419.855 256.278 418.519 256.667 417.343 257.405L371.671 286.303C371.045 286.679 370.523 287.229 370.159 287.895C369.795 288.561 369.603 289.319 369.602 290.092C369.601 290.865 369.791 291.624 370.153 292.291C370.514 292.959 371.035 293.51 371.66 293.889V293.889Z" fill="#513F2C"/>
<path d="M371.66 290.541L449.807 338.776C451.153 339.617 452.681 340.059 454.237 340.059C455.794 340.059 457.322 339.617 458.668 338.776L503.57 310.42C504.182 310.039 504.691 309.49 505.044 308.83C505.398 308.169 505.584 307.42 505.584 306.658C505.584 305.895 505.398 305.146 505.044 304.486C504.691 303.825 504.182 303.277 503.57 302.895L425.087 254.01C423.912 253.272 422.576 252.883 421.215 252.883C419.855 252.883 418.519 253.272 417.343 254.01L371.671 282.908C371.034 283.28 370.502 283.831 370.13 284.502C369.759 285.173 369.563 285.94 369.561 286.721C369.56 287.502 369.755 288.269 370.124 288.941C370.493 289.614 371.024 290.166 371.66 290.541V290.541Z" fill="#301AEC"/>
<path d="M380.678 286.411L394.401 295.057C394.729 295.273 395.106 295.387 395.491 295.387C395.875 295.387 396.252 295.273 396.58 295.057L404.224 289.831C404.397 289.715 404.54 289.554 404.639 289.362C404.738 289.171 404.791 288.955 404.791 288.735C404.791 288.516 404.738 288.3 404.639 288.108C404.54 287.916 404.397 287.755 404.224 287.639L389.842 278.729C389.541 278.543 389.197 278.453 388.851 278.47C388.504 278.487 388.17 278.611 387.886 278.826L380.633 284.304C380.479 284.427 380.354 284.588 380.27 284.773C380.185 284.959 380.144 285.164 380.148 285.37C380.152 285.577 380.203 285.779 380.295 285.961C380.387 286.142 380.519 286.296 380.678 286.411V286.411Z" fill="white"/>
<path d="M447.002 324.508C451.001 324.508 454.243 322.05 454.243 319.018C454.243 315.985 451.001 313.527 447.002 313.527C443.002 313.527 439.76 315.985 439.76 319.018C439.76 322.05 443.002 324.508 447.002 324.508Z" fill="#FF4700"/>
<path d="M454.802 329.264C458.801 329.264 462.043 326.806 462.043 323.774C462.043 320.741 458.801 318.283 454.802 318.283C450.802 318.283 447.56 320.741 447.56 323.774C447.56 326.806 450.802 329.264 454.802 329.264Z" fill="#FFDF24"/>
<path d="M396.379 267.339L484.382 322.485L497.982 313.9L408.85 259.428L396.379 267.339Z" fill="#513F2C"/>
<path opacity="0.32" d="M580.576 284.894C587.674 279.557 595.19 274.895 603.038 270.963L562.987 252.902L549.778 263.293C559.087 269.723 568.429 276.08 577.626 282.667C578.621 283.425 579.593 284.112 580.576 284.894Z" fill="url(#paint1_linear_5_444)"/>
<path d="M573.268 226.557C573.192 226.217 573.051 225.897 572.855 225.618C572.494 225.144 572.063 224.738 571.581 224.414C565.088 219.682 556.092 218.394 549.231 223.005C547.666 224.065 545.331 226.461 546.258 228.724C546.794 230.037 548.426 230.807 549.611 231.337C553.386 232.949 557.33 234.057 561.355 234.636C562.808 234.901 564.283 235.166 565.747 235.311C566.76 235.416 567.781 235.245 568.716 234.813C569.652 234.382 570.471 233.704 571.1 232.842C572.095 231.446 573.715 228.616 573.268 226.557Z" fill="#754C24"/>
<path d="M546.079 227.689C546.079 227.689 552.002 233.468 562.238 232.626C572.475 231.783 573.268 226.605 573.268 226.605C573.268 226.605 570.62 263.161 569.223 263.787C567.826 264.413 562.596 267.134 560.07 267.339C557.545 267.544 549.566 264.1 549.365 263.149C549.163 262.198 546.079 227.689 546.079 227.689Z" fill="#FF8F6F"/>
<path d="M547.945 174.409C547.633 173.723 546.66 174.325 546.984 175.011C553.991 190.23 555.354 207.364 556.617 224.004C556.673 224.763 557.791 224.775 557.735 224.004C556.45 207.135 555.042 189.833 547.945 174.409Z" fill="#007F68"/>
<path d="M547.051 174.541C547.051 174.541 549.007 182.44 546.984 186.389C544.962 190.339 543.297 191.121 545.71 196.022C548.124 200.922 554.583 201.585 555.008 205.341C555.433 209.098 551.913 181.26 547.051 174.541Z" fill="#007F68"/>
<path d="M569.457 188.81C564.061 200.969 561.019 214.185 560.517 227.653C560.517 228.592 561.847 228.58 561.881 227.653C562.354 214.441 565.316 201.472 570.586 189.532C571 188.701 569.826 187.967 569.457 188.81Z" fill="#007F68"/>
<path d="M570.362 192.663C570.362 191.868 570.195 190.254 570.273 188.918L569.491 189.448C566.831 196.419 562.853 212.795 561.668 217.803C563.289 214.047 569.915 213.529 571.86 208.171C572.718 205.897 572.758 203.359 571.972 201.055C571.013 198.371 570.469 195.536 570.362 192.663V192.663Z" fill="#007F68"/>
<path opacity="0.32" d="M274.069 264.594L311.482 286.893L388.713 237.875L353.534 216.19" fill="url(#paint2_linear_5_444)"/>
<path d="M271.342 208.918V260.464C271.344 261.238 271.536 261.998 271.898 262.667C272.261 263.336 272.781 263.89 273.406 264.272C274.031 264.655 274.739 264.853 275.458 264.846C276.176 264.839 276.881 264.627 277.499 264.232L348.494 218.695C349.1 218.305 349.601 217.753 349.95 217.093C350.299 216.432 350.482 215.686 350.483 214.926V162.428C350.483 161.655 350.293 160.896 349.933 160.227C349.574 159.559 349.057 159.004 348.434 158.619C347.812 158.235 347.107 158.033 346.389 158.036C345.672 158.039 344.968 158.246 344.348 158.636L274.773 202.464C273.728 203.123 272.862 204.066 272.26 205.198C271.658 206.331 271.341 207.613 271.342 208.918V208.918Z" fill="#5DA024"/>
<path d="M274.393 210.194V261.74C274.395 262.515 274.587 263.275 274.949 263.944C275.312 264.612 275.832 265.166 276.457 265.549C277.082 265.931 277.79 266.129 278.508 266.122C279.227 266.115 279.932 265.903 280.55 265.509L351.545 219.971C352.15 219.582 352.652 219.03 353.001 218.369C353.349 217.709 353.533 216.962 353.534 216.202V163.705C353.534 162.932 353.344 162.173 352.984 161.504C352.624 160.835 352.107 160.28 351.485 159.896C350.863 159.511 350.157 159.31 349.44 159.313C348.723 159.316 348.019 159.522 347.399 159.912L277.823 203.74C276.779 204.4 275.912 205.343 275.31 206.475C274.709 207.607 274.392 208.889 274.393 210.194V210.194Z" fill="#79C83B"/>
<path d="M347.938 213.443C349.445 209.322 348.563 205.089 345.967 203.986C343.372 202.884 340.046 205.331 338.539 209.452C337.032 213.572 337.914 217.806 340.509 218.908C343.105 220.01 346.43 217.563 347.938 213.443Z" fill="#FBF472"/>
<path d="M340.739 217.755C342.246 213.635 341.364 209.401 338.768 208.299C336.173 207.197 332.847 209.643 331.34 213.764C329.833 217.884 330.715 222.118 333.31 223.22C335.906 224.322 339.231 221.875 340.739 217.755Z" fill="#E2347C"/>
<path d="M283.243 206.991C284.137 206.437 284.741 206.726 284.931 207.774L284.249 208.448C284.07 207.87 283.735 207.725 283.243 208.026C282.872 208.272 282.58 208.633 282.405 209.062C282.173 209.605 282.058 210.198 282.07 210.796C282.015 211.262 282.132 211.733 282.394 212.108C282.51 212.212 282.656 212.269 282.807 212.269C282.958 212.269 283.105 212.212 283.221 212.108C283.489 211.921 283.718 211.675 283.893 211.387C284.068 211.099 284.185 210.774 284.238 210.435L284.919 210.266C284.848 210.859 284.653 211.427 284.349 211.927C284.045 212.427 283.64 212.847 283.165 213.156C282.969 213.321 282.727 213.41 282.478 213.41C282.229 213.41 281.987 213.321 281.79 213.156C281.577 212.898 281.418 212.593 281.323 212.263C281.229 211.932 281.201 211.584 281.243 211.241C281.233 210.333 281.429 209.437 281.813 208.628C282.133 207.945 282.63 207.376 283.243 206.991Z" fill="white"/>
<path d="M287.568 207.725L288.685 209.724L287.836 210.254L286.719 208.328L286.316 208.568V211.169L285.556 211.639V205.618L287.054 204.691C287.847 204.198 288.294 204.607 288.294 205.642C288.313 206.412 288.052 207.159 287.568 207.725V207.725ZM287.099 207.075C287.258 206.98 287.389 206.837 287.476 206.665C287.563 206.492 287.603 206.296 287.59 206.1C287.59 205.642 287.43 205.514 287.11 205.715L286.372 206.172V207.533L287.11 207.075" fill="white"/>
<path d="M291.792 201.801V202.837L290.015 203.921L290.004 205.185L291.423 204.318V205.353L290.004 206.22L289.993 207.882L291.826 206.762V207.798L289.222 209.387L289.255 203.355L291.792 201.801Z" fill="white"/>
<path d="M293.826 200.549C294.798 199.959 295.737 200.284 295.726 202.391C295.762 203.208 295.604 204.022 295.268 204.755C294.932 205.488 294.428 206.116 293.804 206.582L292.53 207.364V201.344L293.826 200.549ZM294.485 204.739C294.804 204.179 294.963 203.53 294.943 202.873C294.943 202.102 294.776 201.669 294.496 201.561C294.341 201.518 294.178 201.512 294.02 201.543C293.862 201.574 293.712 201.642 293.58 201.741L293.301 201.91V205.871L293.58 205.703C293.957 205.468 294.276 205.137 294.508 204.739" fill="white"/>
<path d="M297.19 198.478L297.156 204.511L296.396 204.98L296.419 198.948L297.19 198.478Z" fill="white"/>
<path d="M300.866 196.215V197.25L299.726 197.948L299.704 202.945L298.944 203.415L298.966 198.418L297.827 199.116L297.838 198.081L300.866 196.215Z" fill="white"/>
<path d="M304.587 193.806C305.481 193.253 306.085 193.542 306.275 194.589L305.593 195.263C305.414 194.685 305.079 194.541 304.587 194.842C304.218 195.088 303.925 195.449 303.749 195.877C303.517 196.421 303.403 197.013 303.414 197.611C303.36 198.078 303.476 198.548 303.738 198.924C303.855 199.025 304.001 199.081 304.152 199.081C304.302 199.081 304.448 199.025 304.565 198.924C304.833 198.736 305.062 198.49 305.237 198.202C305.412 197.914 305.53 197.59 305.582 197.25L306.264 197.082C306.194 197.666 306.004 198.226 305.708 198.722C305.413 199.217 305.018 199.636 304.554 199.947C304.358 200.112 304.116 200.202 303.867 200.202C303.618 200.202 303.376 200.112 303.179 199.947C302.966 199.689 302.807 199.385 302.712 199.054C302.618 198.724 302.59 198.375 302.632 198.033C302.621 197.125 302.817 196.228 303.202 195.42C303.513 194.752 303.994 194.193 304.587 193.806V193.806Z" fill="white"/>
<path d="M308.633 191.398L309.996 196.576L309.18 197.082L308.89 195.877L307.582 196.684L307.281 198.298L306.465 198.803L307.884 191.916L308.633 191.398ZM307.806 195.468L308.666 194.938L308.242 193.12L307.795 195.528" fill="white"/>
<path d="M312.488 192.398L313.606 194.396L312.756 194.926L311.639 193L311.248 193.24V195.841L310.488 196.311V190.291L311.974 189.375C312.768 188.882 313.215 189.291 313.215 190.327C313.23 191.092 312.97 191.834 312.488 192.398V192.398ZM312.019 191.747C312.175 191.652 312.303 191.511 312.389 191.341C312.474 191.17 312.512 190.977 312.499 190.784C312.499 190.327 312.343 190.194 312.03 190.399L311.292 190.856V192.217L312.03 191.759" fill="white"/>
<path d="M315.461 187.244C316.422 186.654 317.361 186.979 317.349 189.099C317.384 189.913 317.225 190.724 316.889 191.455C316.553 192.186 316.05 192.813 315.427 193.277L314.153 194.059V188.039L315.461 187.244ZM316.12 191.434C316.436 190.873 316.595 190.225 316.578 189.568C316.578 188.797 316.411 188.364 316.131 188.256C315.975 188.213 315.813 188.207 315.655 188.238C315.497 188.269 315.347 188.337 315.215 188.436L314.936 188.617V192.578L315.215 192.398C315.592 192.162 315.91 191.831 316.142 191.434" fill="white"/>
<path d="M282.841 222.921V232.553C282.839 232.96 282.938 233.36 283.125 233.712C283.313 234.065 283.584 234.358 283.91 234.562C284.237 234.766 284.607 234.873 284.984 234.874C285.362 234.874 285.733 234.767 286.059 234.564L298.542 226.882C298.877 226.685 299.158 226.394 299.355 226.041C299.551 225.687 299.656 225.283 299.659 224.871V215.034C299.659 214.623 299.556 214.219 299.362 213.864C299.169 213.51 298.89 213.217 298.557 213.017C298.223 212.817 297.846 212.717 297.464 212.726C297.082 212.736 296.71 212.855 296.385 213.071L283.903 220.958C283.584 221.159 283.319 221.445 283.133 221.789C282.947 222.133 282.846 222.523 282.841 222.921V222.921Z" fill="#D1D1F5"/>
<path d="M304.543 214.793L304.833 214.613L304.465 220.633L303.805 221.054L304.085 216.551L303.336 217.683L303.414 216.515L304.543 214.793Z" fill="white"/>
<path d="M306.632 213.397H306.722C307.404 212.963 307.772 213.397 307.705 214.444C307.658 215.01 307.522 215.564 307.303 216.082L306.297 218.574L307.582 217.743L307.515 218.731L305.18 220.176V219.742L306.655 216.13C306.834 215.728 306.951 215.297 307.001 214.854C307.001 214.36 306.89 214.167 306.599 214.36C306.455 214.495 306.338 214.659 306.254 214.843C306.169 215.027 306.119 215.227 306.107 215.432L305.515 215.636C305.562 215.158 305.699 214.695 305.917 214.276C306.09 213.927 306.335 213.627 306.632 213.397Z" fill="white"/>
<path d="M308.644 212.144L310.734 210.796V211.181L309.762 213.649L309.907 213.529C310.466 213.18 310.767 213.674 310.711 214.733C310.681 215.326 310.532 215.905 310.276 216.431C310.089 216.841 309.813 217.197 309.471 217.466L309.359 217.539C309.024 217.767 308.745 217.779 308.543 217.599C308.425 217.466 308.336 217.306 308.283 217.131C308.231 216.956 308.217 216.77 308.242 216.587L308.879 216.046C308.879 216.575 309.102 216.744 309.415 216.551C309.6 216.384 309.749 216.176 309.853 215.941C309.957 215.706 310.013 215.451 310.019 215.191C310.019 214.504 309.851 214.288 309.516 214.504C309.404 214.591 309.306 214.697 309.225 214.817L309.002 214.384L309.784 212.385L308.666 213.132L308.644 212.144Z" fill="white"/>
<path d="M313.46 212.795L313.863 212.53L313.807 213.529L313.393 213.782L313.326 214.902L312.667 215.323L312.734 214.203L311.17 215.215V214.661L312.969 209.315L313.662 208.869L313.46 212.795ZM312.801 213.216L312.935 210.928L312.019 213.722L312.79 213.216" fill="white"/>
<path d="M317.964 209.893L318.377 209.628L318.31 210.627L317.908 210.88L317.841 212.012L317.193 212.433L317.26 211.314L315.695 212.325V211.783L317.506 206.437L318.199 205.992L317.964 209.893ZM317.305 210.314L317.45 208.014L316.534 210.82L317.305 210.314" fill="white"/>
<path d="M319.54 205.125L321.428 203.921L321.361 204.92L320.02 205.787L319.853 207.099C319.975 206.909 320.126 206.742 320.3 206.606H320.389C321.126 206.124 321.506 206.606 321.395 207.87C321.365 208.464 321.224 209.046 320.981 209.58C320.801 210.004 320.524 210.373 320.177 210.651L320.042 210.663C319.937 210.761 319.806 210.821 319.668 210.834C319.529 210.847 319.391 210.813 319.271 210.736C319.161 210.607 319.078 210.455 319.028 210.289C318.977 210.122 318.961 209.946 318.981 209.772L319.618 209.182C319.618 209.7 319.819 209.857 320.11 209.664C320.294 209.494 320.439 209.28 320.536 209.041C320.633 208.801 320.678 208.541 320.668 208.279C320.668 207.593 320.523 207.376 320.165 207.605H320.11C319.833 207.849 319.618 208.164 319.484 208.52L319.081 208.653L319.54 205.125Z" fill="white"/>
<path d="M324.177 204.751C324.296 204.921 324.38 205.117 324.425 205.324C324.469 205.531 324.472 205.747 324.434 205.955C324.396 206.524 324.248 207.078 323.998 207.581C323.813 207.998 323.537 208.362 323.194 208.641L323.093 208.713C322.976 208.82 322.828 208.878 322.674 208.878C322.521 208.878 322.372 208.82 322.255 208.713C322.13 208.546 322.042 208.352 321.995 208.143C321.949 207.935 321.946 207.718 321.987 207.509C322.014 207.097 322.097 206.691 322.233 206.305L323.484 202.464L324.211 201.994L323.283 204.739H323.373C323.708 204.523 323.976 204.523 324.177 204.751ZM323.775 206.365C323.775 205.763 323.596 205.546 323.272 205.763C323.098 205.922 322.957 206.119 322.858 206.341C322.76 206.563 322.707 206.805 322.702 207.051C322.702 207.629 322.892 207.858 323.205 207.653C323.381 207.492 323.523 207.293 323.623 207.069C323.723 206.845 323.779 206.601 323.786 206.353" fill="white"/>
<path d="M325.105 201.537L327.317 200.104L327.295 200.561L325.574 207.027L324.926 207.436L326.479 201.609L325.038 202.536L325.105 201.537Z" fill="white"/>
<path d="M330.826 200.513C331.139 200.609 331.273 200.983 331.229 201.645C331.198 202.2 331.049 202.74 330.793 203.222C330.609 203.607 330.345 203.941 330.022 204.198L329.921 204.27C329.805 204.368 329.661 204.422 329.513 204.422C329.365 204.422 329.222 204.368 329.105 204.27C328.986 204.114 328.901 203.932 328.856 203.736C328.812 203.54 328.809 203.335 328.848 203.138C328.878 202.505 329.076 201.895 329.418 201.38C329.206 201.236 329.117 200.91 329.15 200.393C329.181 199.916 329.307 199.452 329.519 199.032C329.681 198.67 329.923 198.356 330.223 198.117H330.301C330.614 197.924 330.849 197.912 331.028 198.117C331.128 198.253 331.2 198.41 331.238 198.578C331.277 198.747 331.281 198.922 331.251 199.092C331.219 199.596 331.073 200.084 330.826 200.513V200.513ZM330.569 202.078C330.587 201.985 330.586 201.888 330.567 201.795C330.547 201.701 330.51 201.613 330.458 201.537C330.368 201.452 330.245 201.452 330.089 201.537C329.941 201.652 329.822 201.805 329.742 201.982C329.632 202.206 329.567 202.452 329.552 202.704C329.534 202.798 329.535 202.895 329.554 202.988C329.573 203.082 329.611 203.17 329.664 203.246C329.754 203.331 329.876 203.343 330.022 203.246C330.169 203.131 330.288 202.978 330.368 202.801C330.479 202.578 330.544 202.331 330.558 202.078H330.569ZM330.625 199.502C330.625 199.044 330.491 198.864 330.223 199.032C330.087 199.155 329.978 199.308 329.901 199.48C329.824 199.653 329.781 199.84 329.776 200.031C329.776 200.489 329.91 200.694 330.167 200.525C330.306 200.399 330.418 200.242 330.497 200.066C330.576 199.89 330.62 199.697 330.625 199.502" fill="white"/>
<path d="M334.045 196.215C334.169 196.381 334.258 196.576 334.305 196.784C334.351 196.992 334.354 197.209 334.313 197.419C334.291 197.83 334.212 198.236 334.078 198.623L332.827 202.452L332.089 202.921L333.017 200.176H332.938C332.603 200.393 332.331 200.393 332.123 200.176C332.006 200.005 331.924 199.809 331.882 199.602C331.84 199.394 331.838 199.18 331.877 198.972C331.927 198.425 332.083 197.896 332.335 197.419C332.521 197.001 332.797 196.638 333.14 196.359L333.24 196.287C333.346 196.176 333.484 196.109 333.63 196.096C333.777 196.083 333.924 196.125 334.045 196.215V196.215ZM333.654 197.804C333.654 197.226 333.464 196.997 333.14 197.214C332.964 197.376 332.822 197.575 332.722 197.798C332.622 198.022 332.567 198.266 332.559 198.514C332.559 199.116 332.737 199.333 333.073 199.104C333.247 198.945 333.388 198.748 333.486 198.526C333.585 198.304 333.638 198.062 333.642 197.816" fill="white"/>
<path d="M334.928 195.203L337.151 193.77L337.118 194.216L335.408 200.682L334.76 201.091L336.313 195.263L334.872 196.203L334.928 195.203Z" fill="white"/>
<path d="M339.643 192.602C339.766 192.77 339.854 192.965 339.9 193.173C339.946 193.381 339.95 193.597 339.912 193.806C339.892 194.218 339.812 194.625 339.677 195.01L338.425 198.839L337.688 199.309L338.615 196.564H338.537C338.202 196.792 337.923 196.792 337.721 196.564C337.609 196.39 337.529 196.195 337.487 195.988C337.444 195.782 337.441 195.568 337.476 195.36C337.524 194.814 337.676 194.286 337.923 193.806C338.108 193.389 338.384 193.025 338.727 192.747L338.828 192.675C339.152 192.422 339.431 192.41 339.643 192.602ZM339.252 194.204C339.252 193.626 339.062 193.397 338.738 193.614C338.563 193.775 338.421 193.974 338.321 194.198C338.221 194.422 338.165 194.666 338.157 194.914C338.157 195.516 338.336 195.733 338.671 195.504C338.846 195.345 338.987 195.148 339.085 194.926C339.183 194.704 339.236 194.462 339.241 194.216" fill="white"/>
<path d="M292.608 241.126L291.58 244.534L292.653 246.846L291.904 247.412L291.189 245.858L290.384 248.543L289.624 249.109L290.842 245.088L289.926 243.125L290.675 242.571L291.233 243.775L291.87 241.68L292.608 241.126Z" fill="white"/>
<path d="M298.821 236.503L297.793 239.91L298.866 242.222L298.106 242.788L297.402 241.235L296.586 243.92L295.837 244.486L297.044 240.464L296.139 238.501L296.888 237.948L297.447 239.152L298.084 237.057L298.821 236.503Z" fill="white"/>
<path d="M295.715 238.815L294.686 242.222L295.759 244.534L294.999 245.1L294.295 243.547L293.48 246.232L292.731 246.797L293.938 242.776L293.033 240.813L293.781 240.259L294.34 241.463L294.977 239.368L295.715 238.815Z" fill="white"/>
<path d="M303.224 233.216L302.196 236.635L303.269 238.947L302.509 239.513L301.805 237.96L300.989 240.645L300.24 241.199L301.458 237.189L300.542 235.214L301.291 234.66L301.85 235.877L302.487 233.769L303.224 233.216Z" fill="white"/>
<path d="M306.331 230.904L305.303 234.323L306.375 236.635L305.616 237.201L304.912 235.636L304.096 238.333L303.347 238.887L304.565 234.877L303.649 232.903L304.398 232.349L304.956 233.553L305.593 231.458L306.331 230.904Z" fill="white"/>
<path d="M309.437 228.592L308.409 232.012L309.482 234.323L308.733 234.877L308.018 233.324L307.214 236.009L306.443 236.575L307.661 232.565L306.755 230.591L307.504 230.037L308.063 231.241L308.7 229.146L309.437 228.592Z" fill="white"/>
<path opacity="0.32" d="M465.038 258.429L497.982 279.837L548.348 247.857L513.169 226.172" fill="url(#paint3_linear_5_444)"/>
<path d="M391.92 118.095C390.255 119.331 388.909 121.002 388.008 122.953C387.107 124.903 386.68 127.068 386.768 129.244C387.093 139.539 389.227 141.526 389.227 141.526L404.458 133.495L426.551 116.096C426.551 116.096 407.934 111.171 391.92 118.095Z" fill="#666666"/>
<path d="M364.832 175.143C364.832 175.143 361.278 189.46 379.46 204.33C397.642 219.2 465.038 258.429 465.038 258.429L515.046 226.605V202.018L384.299 153.675" fill="#E6E6E6"/>
<path d="M515.046 202.018L441.515 143.898C441.515 143.898 430.049 133.254 419.969 134.265C409.889 135.277 369.615 164.367 369.615 164.367L468.994 233.541L515.046 202.018Z" fill="#333333"/>
<path d="M428.328 189.953L440.733 200.501L471.374 180.67L459.73 170.724L428.328 189.953Z" fill="#70F9E9"/>
<path d="M412.471 181.091L468.134 226.605L505.559 203.535L449.851 158.021L412.471 181.091Z" fill="#301AEC"/>
<path d="M468.994 231.373L408.224 182.464C408.224 182.464 381.773 154.843 371.626 163.091C371.626 163.091 365.815 165.354 364.832 175.131C364.832 175.131 373.135 167.714 381.829 173.446C390.523 179.177 467.016 242.463 467.016 242.463L468.994 231.373Z" fill="#666666"/>
<path d="M468.994 231.373L515.046 202.018V211.482L467.016 242.475L468.994 231.373Z" fill="#515151"/>
<path d="M467.016 242.475L465.038 258.429C465.038 258.429 515.046 227.773 515.046 226.605V211.482L467.016 242.475Z" fill="#CCCCCC"/>
<path d="M407.61 166.486L432.91 151.592C432.91 151.592 432.552 125.175 422.853 109.04C421.966 107.627 420.636 106.605 419.107 106.163C417.577 105.721 415.952 105.887 414.527 106.632L391.976 118.119C391.976 118.119 400.614 112.604 407.61 166.486Z" fill="#E6E6E6"/>
<path d="M409.208 134.241L425.412 124.669" stroke="#999999" stroke-width="1.015" stroke-miterlimit="10"/>
<path d="M410.348 138.275L426.563 128.702" stroke="#999999" stroke-width="1.015" stroke-miterlimit="10"/>
<path d="M410.996 142.176L427.211 132.604" stroke="#999999" stroke-width="1.015" stroke-miterlimit="10"/>
<path d="M413.298 158.467L429.502 148.895" stroke="#999999" stroke-width="1.015" stroke-miterlimit="10"/>
<path d="M475.789 194.144C474.861 199.706 466.591 202.777 457.327 201.007C448.063 199.237 441.302 193.277 442.23 187.762C443.157 182.247 451.427 179.129 460.691 180.899C469.955 182.669 476.727 188.581 475.789 194.144Z" fill="#01C56F"/>
<path d="M455.506 195.6H462.915L459.954 183.921" stroke="#F2F2F2" stroke-width="2.03" stroke-miterlimit="10"/>
<defs>
<linearGradient id="paint0_linear_5_444" x1="487.031" y1="338.776" x2="479.868" y2="328.426" gradientUnits="userSpaceOnUse">
<stop stop-color="white" stop-opacity="0"/>
<stop offset="0.98" stop-color="#0800BF"/>
</linearGradient>
<linearGradient id="paint1_linear_5_444" x1="-13251.2" y1="6512.48" x2="-13990.4" y2="5520.65" gradientUnits="userSpaceOnUse">
<stop stop-color="white" stop-opacity="0"/>
<stop offset="0.98" stop-color="#0800BF"/>
</linearGradient>
<linearGradient id="paint2_linear_5_444" x1="14876.3" y1="13375.4" x2="14258.1" y2="11533.7" gradientUnits="userSpaceOnUse">
<stop stop-color="white" stop-opacity="0"/>
<stop offset="0.98" stop-color="#0800BF"/>
</linearGradient>
<linearGradient id="paint3_linear_5_444" x1="24080" y1="10222.4" x2="23608.4" y2="8876.47" gradientUnits="userSpaceOnUse">
<stop stop-color="white" stop-opacity="0"/>
<stop offset="0.98" stop-color="#0800BF"/>
</linearGradient>
</defs>
</svg>
